<?xml version="1.0" standalone="no"?><!DOCTYPE svg PUBLIC "-//W3C//DTD SVG 1.1//EN" "http://www.w3.org/Graphics/SVG/1.1/DTD/svg11.dtd"><svg class="icon" width="200px" height="200.00px" viewBox="0 0 1024 1024" version="1.1" xmlns="http://www.w3.org/2000/svg"><path d="M511.740146 401.480433V91.068867L154.128252 168.255285v319.851632L511.740146 487.551619V401.480433z" fill="#FF5E25" /><path d="M511.740146 528.643668v410.365201l189.911906-93.290059A302.637394 302.637394 0 0 0 789.389131 784.080735a273.206602 273.206602 0 0 0 85.515888-197.13078V487.551619H511.740146v41.092049z" fill="#FFDFD4" /><path d="M511.740146 1023.969459a89.402973 89.402973 0 0 1-38.870858-7.774172l-222.119189-123.831448a368.162555 368.162555 0 0 1-153.817538-176.029456A378.157918 378.157918 0 0 1 67.501769 569.18042V94.955953L511.740146 0l444.238377 94.400655v475.335063a374.270832 374.270832 0 0 1-177.695351 321.517526l-228.782764 123.831447a97.177145 97.177145 0 0 1-37.760262 8.884768zM123.031566 139.935089v429.245331a322.628121 322.628121 0 0 0 24.988409 126.05264 312.07746 312.07746 0 0 0 127.718533 148.819856l222.119188 122.165554a36.094368 36.094368 0 0 0 27.209601 0l226.006274-121.610256A318.741035 318.741035 0 0 0 900.448725 570.291016V139.935089L511.740146 55.529797z" fill="#4C5E86" /></svg>