<?xml version="1.0" standalone="no"?><!DOCTYPE svg PUBLIC "-//W3C//DTD SVG 1.1//EN" "http://www.w3.org/Graphics/SVG/1.1/DTD/svg11.dtd"><svg class="icon" width="200px" height="199.80px" viewBox="0 0 1025 1024" version="1.1" xmlns="http://www.w3.org/2000/svg"><path fill="#d4237a" d="M819.289238 0l-616.638478 0c-111.920834 0-202.650783 90.72995-202.650783 202.650783l0 616.637457c0 111.921855 90.72995 202.651805 202.650783 202.651805l616.638478 0c111.920834 0 202.650783-90.72995 202.650783-202.651805L1021.940021 202.649762C1021.940021 90.728929 931.210072 0 819.289238 0zM869.875081 604.202149c-8.571743 33.095117-21.602466 64.393774-38.409945 93.220892-13.061363-6.878433-27.936548-10.778765-43.72273-10.778765-51.893103 0-93.95929 42.066187-93.95929 93.95929 0 0.596437 0.012256 1.190832 0.021447 1.784205-0.010213 0.593373-0.021447 1.187768-0.021447 1.784205 0 15.573752 3.792074 30.261019 10.497908 43.193698-29.04874 17.786902-60.739574 31.683685-94.344319 40.969314-6.489319-45.561064-45.652981-80.595623-93.007441-80.595623-48.386992 0-88.223688 36.575696-93.387364 83.587001-34.782299-8.408335-67.648646-21.721958-97.828983-39.167747 8.362377-14.045893 13.16962-30.453023 13.16962-47.986643 0-51.893103-42.066187-93.95929-93.95929-93.95929-18.421127 0-35.601379 5.305636-50.103791 14.465645-18.917477-30.808434-33.460741-64.591905-42.757605-100.48946 46.312738-5.814242 82.137781-45.333315 82.137781-93.220892s-35.825043-87.406651-82.137781-93.220892c9.1212-35.213286 23.284542-68.395214 41.677073-98.727724 12.254538 5.855094 25.974637 9.13652 40.460709 9.13652 51.893103 0 93.95929-42.066187 93.95929-93.95929 0-14.487093-3.281426-28.20617-9.13652-40.459687 31.990074-19.398508 67.151275-34.091903 104.520518-43.127314 5.163676 47.011305 45.000372 83.587001 93.387364 83.587001 47.354461 0 86.519144-35.033538 93.007441-80.595623 35.71985 9.870832 69.276593 24.951298 99.798043 44.374317-10.071006 14.968123-15.951632 32.992988-15.951632 52.391496 0 51.893103 42.066187 93.95929 93.95929 93.95929 17.382469 0 33.658873-4.725539 47.624083-12.954126 14.932378 26.915251 26.616011 55.882288 34.512677 86.37412-46.311717 5.814242-82.13676 45.333315-82.13676 93.220892 0 0.002043 0 0.005106 0 0.007149s0 0.004085 0 0.006128C787.742407 558.868834 823.565407 598.387907 869.875081 604.202149zM510.97102 510.969001m-167.492647 0a164 164 0 1 0 334.985294 0 164 164 0 1 0-334.985294 0Z" /></svg>