<?xml version="1.0" standalone="no"?><!DOCTYPE svg PUBLIC "-//W3C//DTD SVG 1.1//EN" "http://www.w3.org/Graphics/SVG/1.1/DTD/svg11.dtd"><svg class="icon" width="200px" height="200.00px" viewBox="0 0 1024 1024" version="1.1" xmlns="http://www.w3.org/2000/svg"><path d="M804.266667 548.266667c4.266667-14.933333 6.4-27.733333 6.4-44.8 0-96-78.933333-174.933333-174.933334-174.933334-74.666667 0-140.8 46.933333-164.266666 115.2-25.6-25.6-61.866667-40.533333-100.266667-40.533333-78.933333 0-145.066667 64-145.066667 145.066667-78.933333 4.266667-140.8 70.4-140.8 149.333333v8.533333c0 83.2 68.266667 149.333333 149.333334 149.333334h554.666666c83.2 0 149.333333-68.266667 149.333334-149.333334v-8.533333c0-76.8-59.733333-140.8-134.4-149.333333z" fill="#378BCB" /><path d="M204.8 503.466667c0-78.933333 64-145.066667 145.066667-145.066667 38.4 0 74.666667 14.933333 100.266666 40.533333 25.6-66.133333 89.6-115.2 164.266667-115.2h8.533333c-44.8-89.6-136.533333-151.466667-243.2-151.466666-149.333333 0-270.933333 121.6-270.933333 270.933333 0 42.666667 10.666667 83.2 27.733333 119.466667 23.466667-10.666667 44.8-17.066667 68.266667-19.2z" fill="#EE741C" /></svg>