<?xml version="1.0" standalone="no"?><!DOCTYPE svg PUBLIC "-//W3C//DTD SVG 1.1//EN" "http://www.w3.org/Graphics/SVG/1.1/DTD/svg11.dtd"><svg class="icon" width="200px" height="200.00px" viewBox="0 0 1024 1024" version="1.1" xmlns="http://www.w3.org/2000/svg"><path fill="#d4237a" d="M613.38624 570.19904v163.98848a17.03936 17.03936 0 0 0 17.03424 17.07008h104.97536a17.06496 17.06496 0 0 0 17.05984-17.07008v-163.98848a17.07008 17.07008 0 0 0-17.05984-17.05984h-104.97536a17.04448 17.04448 0 0 0-17.03424 17.05984zM862.74048 0.09728H161.17248C72.1408 0.09728 0 72.28928 0 161.25952v701.568C0 951.86432 72.1408 1024 161.17248 1024h701.568c89.01632 0 161.16736-72.13568 161.16736-161.17248V161.25952C1023.90272 72.28928 951.7568 0.09728 862.74048 0.09728zM180.81792 281.6512V222.65856a17.08544 17.08544 0 0 1 17.06496-17.05984h292.51584a17.08032 17.08032 0 0 1 17.0752 17.05984v417.71008a17.1008 17.1008 0 0 1-17.0752 17.08544H448.4608a17.08544 17.08544 0 0 1-17.06496-17.08544V281.6512H256.89088v358.71744a17.09568 17.09568 0 0 1-17.07008 17.08544h-41.93792a17.1008 17.1008 0 0 1-17.06496-17.08544V281.6512z m329.16992 516.75136a17.05984 17.05984 0 0 1-17.05472 17.05984c-60.87168 0-114.76992-29.20448-148.90496-74.17856-34.18112 44.97408-88.07424 74.17856-148.90496 74.17856a17.07008 17.07008 0 0 1-17.06496-17.05984v-42.11712a17.05984 17.05984 0 0 1 17.06496-17.05984v-0.17408c61.06624 0 110.62784-49.54624 110.62784-110.64832h0.37376V332.38016a17.0496 17.0496 0 0 1 17.03424-17.05472h41.93792a17.05984 17.05984 0 0 1 17.0752 17.05472v296.01792h0.10752c0 61.1072 49.53088 110.64832 110.6432 110.64832v0.17408a17.05472 17.05472 0 0 1 17.05472 17.05984v42.12224z m335.85152-489.07776a17.03424 17.03424 0 0 1-17.0752 17.05984h-173.46048v150.70208h156.40064a17.06496 17.06496 0 0 1 17.05984 17.08544v58.97216h-0.26112v198.1184h0.26112v58.99264a17.0496 17.0496 0 0 1-17.05984 17.08544H554.37312a17.07008 17.07008 0 0 1-17.06496-17.08544V494.17216a17.0752 17.0752 0 0 1 17.06496-17.08544h24.86784V213.8368a17.05472 17.05472 0 0 1 17.06496-17.05984h41.9328a17.0496 17.0496 0 0 1 17.06496 17.05984v36.49536h173.46048a17.05984 17.05984 0 0 1 17.0752 17.05984v41.9328z" /></svg>