<?xml version="1.0" standalone="no"?><!DOCTYPE svg PUBLIC "-//W3C//DTD SVG 1.1//EN" "http://www.w3.org/Graphics/SVG/1.1/DTD/svg11.dtd"><svg class="icon" width="200px" height="199.03px" viewBox="0 0 1029 1024" version="1.1" xmlns="http://www.w3.org/2000/svg"><path d="M1026.553616 835.032419c0 104.698254-79.162095 188.967581-178.753117 188.967581H178.753117c-99.591022 0-178.753117-84.269327-178.753117-188.967581V188.967581C0 84.269327 79.162095 0 178.753117 0h669.047382c99.591022 0 178.753117 84.269327 178.753117 188.967581v646.064838z" fill="#FC883D" /><path d="M648.618454 449.436409h53.625935v229.825436h-53.625935v-229.825436z m-206.842893 91.930175h53.625935v137.895261h-53.625935v-137.895261z" fill="#FFFFFF" /><path d="M546.473815 449.436409h-204.289276v229.825436h53.625935v-178.753117h122.573566c17.875312 0 30.643392 15.321696 30.643391 30.643392v145.556109h53.625936v-178.753117c-5.107232-25.53616-28.089776-48.518703-56.179552-48.518703z" fill="#FFFFFF" /><path d="M531.15212 173.645885C413.685786 173.645885 314.094763 102.144638 273.236908 0H219.610973c43.411471 130.234414 165.985037 224.718204 311.541147 224.718204S799.281796 130.234414 842.693267 0h-53.625935c-40.857855 102.144638-140.448878 173.645885-257.915212 173.645885z" fill="#FFFFFF" /></svg>