<?xml version="1.0" standalone="no"?><!DOCTYPE svg PUBLIC "-//W3C//DTD SVG 1.1//EN" "http://www.w3.org/Graphics/SVG/1.1/DTD/svg11.dtd"><svg class="icon" width="200px" height="200.00px" viewBox="0 0 1024 1024" version="1.1" xmlns="http://www.w3.org/2000/svg"><path d="M102.4 0h819.2c56.32 0 102.4 46.08 102.4 102.4v819.2c0 56.32-46.08 102.4-102.4 102.4H102.4c-56.32 0-102.4-46.08-102.4-102.4V102.4c0-56.32 46.08-102.4 102.4-102.4z" fill="#FF906E" /><path d="M678.4 202.24c64 0 89.6 38.4 89.6 58.88s-15.36 30.72-53.76 46.08-89.6 35.84-89.6 84.48 40.96 176.64 35.84 230.4-33.28 186.88-235.52 197.12c-84.48 7.68-158.72-51.2-168.96-135.68-10.24-84.48 84.48-176.64 212.48-181.76 53.76 0 69.12 25.6 102.4 25.6s15.36-117.76 0-181.76 15.36-143.36 107.52-143.36z" fill="#FFFFFF" /></svg>