<?xml version="1.0" standalone="no"?><!DOCTYPE svg PUBLIC "-//W3C//DTD SVG 1.1//EN" "http://www.w3.org/Graphics/SVG/1.1/DTD/svg11.dtd"><svg class="icon" width="200px" height="200.00px" viewBox="0 0 1024 1024" version="1.1" xmlns="http://www.w3.org/2000/svg"><path fill="#d4237a" d="M509.422277 925.776738c-118.455138 0-221.463631-11.269908-262.461046-28.673969l-6.843077-4.324431-23.739077-21.025476V404.227938l-51.054277 50.898708c-19.463877 19.519015-53.515815 19.469785-73.082092 0L17.146092 379.984738c-9.704369-9.605908-15.139446-22.634338-15.090215-36.519384 0-13.881108 5.385846-26.860308 15.188677-36.619816L225.636431 98.461538h173.178092l4.123569 20.170831c10.208492 50.402462 55.024246 87.0144 106.584616 87.0144 51.503262 0 96.419446-36.617846 106.685046-87.061661L620.327385 98.461538h172.981169l208.484431 208.490339c9.710277 9.605908 15.143385 22.632369 15.143384 36.517415 0 13.881108-5.484308 26.909538-15.293046 36.619816l-74.996185 74.994215c-19.568246 19.566277-53.521723 19.566277-73.082092 0l-51.003077-50.904615v467.574154l-30.684554 25.355815c-41.245538 17.402092-144.257969 28.668062-262.455138 28.668061z m-239.273354-73.590153c31.338338 11.4688 117.295262 23.290092 239.273354 23.290092 121.773292 0 207.836554-11.821292 239.322585-23.339323l3.473723-3.068062V282.911508l136.861538 136.609477 77.056-75.098585-193.799877-195.6096H659.869538c-21.882092 63.176862-82.140554 107.185231-150.447261 107.185231-68.302769 0-128.561231-44.008369-150.390154-107.185231h-112.571077l-193.746708 193.746708 75.043447 76.957538 138.874092-136.609477v566.210954l3.522954 3.070031h-0.005908z m0 0"  /></svg>