<?xml version="1.0" standalone="no"?><!DOCTYPE svg PUBLIC "-//W3C//DTD SVG 1.1//EN" "http://www.w3.org/Graphics/SVG/1.1/DTD/svg11.dtd"><svg class="icon" width="200px" height="200.00px" viewBox="0 0 1024 1024" version="1.1" xmlns="http://www.w3.org/2000/svg"><path d="M921.6 1024H102.4C46.1 1024 0 977.9 0 921.6V102.4C0 46.1 46.1 0 102.4 0h819.2C977.9 0 1024 46.1 1024 102.4v819.2c0 56.3-46.1 102.4-102.4 102.4z" fill="#FFBF98" /><path d="M767.3 365.8H659.1l-22.5-61.9c-2.6-9.1-10.5-15.5-20.5-15.5H407.8c-8.6 0-16.8 5.3-19.9 14l-9.7 26.6h-92.4c-7.1 0-12.7 5.7-12.7 12.8v24h-16.3c-11.8 0-21.3 9.4-21.3 21.1v327.3c0 11.6 9.5 21.4 21.3 21.4h510.5c11.6 0 21.2-9.8 21.2-21.4V386.9c0-11.8-9.6-21.1-21.2-21.1z m-468.8 0v-11.2h70.3l-3.9 11.2h-66.4z m213.3 323.4c-80.8 0-146.7-66.1-146.7-146.6 0-80.9 66.1-146.9 146.7-146.9 80.9 0 147 66 147 146.9 0.1 80.3-66.3 146.6-147 146.6z" fill="#FFFFFF" /><path d="M511.8 438.2c-57.4 0-104.1 46.8-104.1 104.5 0 57.1 46.8 103.8 104.1 103.8 57.2 0 104.2-47.1 104.2-103.8 0-57.7-46.8-104.5-104.2-104.5z" fill="#FFFFFF" /></svg>