<?xml version="1.0" standalone="no"?><!DOCTYPE svg PUBLIC "-//W3C//DTD SVG 1.1//EN" "http://www.w3.org/Graphics/SVG/1.1/DTD/svg11.dtd"><svg class="icon" width="200px" height="200.00px" viewBox="0 0 1024 1024" version="1.1" xmlns="http://www.w3.org/2000/svg"><path fill="#d4237a" d="M872.448 20.48H151.552c-72.09 0-131.072 58.982-131.072 131.072v720.896c0 72.09 58.982 131.072 131.072 131.072h720.896c72.09 0 131.072-58.982 131.072-131.072V151.552c0-72.09-58.982-131.072-131.072-131.072zM741.376 782.882c-41.506 42.052-196.608 1.639-349.525-150.733C238.387 479.232 199.066 324.13 241.664 282.624c36.045-36.045 80.282-99.396 145.818-16.93s33.86 104.857-4.37 141.995c-26.214 25.668 28.946 91.204 85.197 148.002 57.344 56.251 122.334 111.41 148.002 85.196 37.684-37.683 60.621-69.358 141.449-4.369 82.466 66.629 19.66 111.412-16.384 146.364z"  /></svg>