<?xml version="1.0" standalone="no"?><!DOCTYPE svg PUBLIC "-//W3C//DTD SVG 1.1//EN" "http://www.w3.org/Graphics/SVG/1.1/DTD/svg11.dtd"><svg class="icon" width="200px" height="200.00px" viewBox="0 0 1024 1024" version="1.1" xmlns="http://www.w3.org/2000/svg"><path d="M896 1024H128C57.6 1024 0 966.4 0 896V128C0 57.6 57.6 0 128 0h768c70.4 0 128 57.6 128 128v768c0 70.4-57.6 128-128 128z" fill="#F2A83B" /><path d="M624 490.666667L821.333333 299.733333v423.466667L624 490.666667zM202.666667 299.733333h618.666666L512 540.8 212.266667 307.2l-9.6-7.466667z m0 424.533334V299.733333L400 490.666667 210.133333 714.666667l-7.466666 9.6z m309.333333-125.866667l78.933333-75.733333L821.333333 724.266667H202.666667L433.066667 522.666667l78.933333 75.733333z" fill="#FFFFFF" /></svg>