<?xml version="1.0" standalone="no"?><!DOCTYPE svg PUBLIC "-//W3C//DTD SVG 1.1//EN" "http://www.w3.org/Graphics/SVG/1.1/DTD/svg11.dtd"><svg class="icon" width="200px" height="200.00px" viewBox="0 0 1024 1024" version="1.1" xmlns="http://www.w3.org/2000/svg"><path d="M0 0m148.405797 0l727.188406 0q148.405797 0 148.405797 148.405797l0 727.188406q0 148.405797-148.405797 148.405797l-727.188406 0q-148.405797 0-148.405797-148.405797l0-727.188406q0-148.405797 148.405797-148.405797Z" fill="#4DD6FF" /><path d="M519.42029 493.122783c-14.172754 0-25.971014 11.813101-25.971015 25.971014 0 14.172754 11.798261 25.971014 25.971015 25.971015s25.971014-11.798261 25.971014-25.971015c0-14.157913-11.798261-25.971014-25.971014-25.971014zM519.42029 207.768116c-172.447536 0-311.652174 139.204638-311.652174 311.652174s139.204638 311.652174 311.652174 311.652174 311.652174-139.204638 311.652174-311.652174-139.204638-311.652174-311.652174-311.652174z m76.176696 387.82887L311.652174 727.188406l131.59142-283.944812L727.188406 311.652174l-131.59142 283.944812z" fill="#FFFFFF" /></svg>