<?xml version="1.0" standalone="no"?><!DOCTYPE svg PUBLIC "-//W3C//DTD SVG 1.1//EN" "http://www.w3.org/Graphics/SVG/1.1/DTD/svg11.dtd"><svg class="icon" width="200px" height="176.10px" viewBox="0 0 1163 1024" version="1.1" xmlns="http://www.w3.org/2000/svg"><path d="M172.311273 215.691636l1.210182 607.697455c9.774545 0 83.781818-2.234182 131.816727-64.046546 50.920727-65.163636 30.999273-141.218909 27.927273-153.227636a184.040727 184.040727 0 0 0-64.046546-94.208c13.777455-9.309091 68.049455-47.755636 81.640727-118.039273 3.165091-16.570182 12.008727-61.998545-13.777454-104.261818-23.645091-38.632727-62.836364-52.596364-87.877818-61.533091a218.670545 218.670545 0 0 0-76.893091-12.381091z" opacity=".2" /><path d="M226.304 283.461818l-1.210182 164.491637a85.457455 85.457455 0 0 0 53.992727-40.215273c20.573091-37.236364 0.558545-76.055273-2.513454-81.640727a95.045818 95.045818 0 0 0-50.269091-42.635637zM226.304 553.425455v169.518545a114.408727 114.408727 0 0 0 47.755636-55.202909c4.468364-11.357091 18.618182-47.755636-1.210181-80.337455a81.268364 81.268364 0 0 0-46.545455-33.978181zM542.72 204.427636a266.146909 266.146909 0 0 0-96.628364 101.655273 297.890909 297.890909 0 0 0-22.621091 61.533091c-8.192 27.927273-14.894545 59.392-25.134545 175.755636 0 0-4.189091 47.848727-6.237091 130.327273A239.895273 239.895273 0 0 0 402.152727 754.036364a116.177455 116.177455 0 0 0 26.344728 49.245091 69.911273 69.911273 0 0 0 43.938909 25.134545c25.134545 1.954909 44.032-15.732364 51.479272-22.621091 25.693091-23.924364 31.185455-55.389091 37.236364-93.090909a359.517091 359.517091 0 0 0 3.723636-82.850909 271.266909 271.266909 0 0 0-14.801454-86.481455c-6.330182-17.035636-10.519273-27.927273-21.317818-37.236363-23.458909-20.852364-56.785455-16.663273-66.56-15.080728a377.576727 377.576727 0 0 1 9.029818-88.064 235.147636 235.147636 0 0 1 23.831273-71.586909c12.567273-22.341818 29.696-41.704727 64.046545-80.337454l11.264-12.567273a25.972364 25.972364 0 0 0-27.927273-33.885091z" opacity=".2" /><path d="M471.226182 554.728727a29.975273 29.975273 0 0 0-21.317818 17.594182 44.590545 44.590545 0 0 0-3.723637 21.317818c0 14.615273-1.396364 29.323636-1.210182 43.938909 0 41.704727-5.678545 46.545455 0 69.073455 4.747636 18.618182 11.450182 24.762182 16.29091 27.927273a27.927273 27.927273 0 0 0 23.831272 2.513454c2.420364-1.117091 10.426182-5.492364 16.290909-36.398545a302.266182 302.266182 0 0 0 3.723637-53.992728 356.631273 356.631273 0 0 0-1.210182-45.242181c-2.234182-22.248727-5.492364-30.254545-11.264-36.398546a27.927273 27.927273 0 0 0-21.410909-10.333091zM724.805818 139.077818c-18.618182 0.558545-29.323636 21.038545-30.161454 22.621091-2.978909 6.144-2.699636 9.309091-5.026909 31.371636-1.954909 18.618182-2.978909 27.927273-3.723637 31.371637-4.002909 15.36-14.522182 20.48-48.965818 46.545454-44.125091 33.233455-52.596364 44.125091-55.202909 57.716364a33.233455 33.233455 0 0 0 5.026909 27.927273c9.309091 9.867636 26.717091 8.657455 37.236364 5.026909 16.756364-5.492364 18.618182-16.849455 45.242181-36.398546a208.151273 208.151273 0 0 1 18.618182-12.567272l-1.210182 499.712-69.818181 9.495272a26.903273 26.903273 0 0 0-10.053819 43.938909 34.164364 34.164364 0 0 0 22.621091 8.750546c20.666182 1.396364 89.367273 2.234182 182.085819 1.210182a35.933091 35.933091 0 0 0 20.107636-22.621091 32.209455 32.209455 0 0 0-11.264-33.885091 29.602909 29.602909 0 0 0-17.594182-3.723636 311.202909 311.202909 0 0 1-52.782545-5.02691l7.540363-641.675636a35.746909 35.746909 0 0 0-13.777454-23.831273 30.906182 30.906182 0 0 0-18.897455-5.957818zM800.116364 326.190545a27.182545 27.182545 0 0 0 26.344727 15.080728c6.516364-1.210182 9.309091-5.771636 20.107636-20.107637a225.093818 225.093818 0 0 1 27.927273-32.674909 62.836364 62.836364 0 0 1 38.632727-17.594182 47.848727 47.848727 0 0 1 35.188364 12.567273c3.630545 3.723636 9.309091 11.170909 11.264 43.938909a332.893091 332.893091 0 0 1-1.210182 59.019637 395.729455 395.729455 0 0 1-11.264 60.229818 461.637818 461.637818 0 0 1-23.831273 65.163636c-12.474182 29.323636-14.429091 28.672-25.134545 53.992727a405.038545 405.038545 0 0 0-25.134546 74.472728c-5.306182 24.948364-4.933818 41.053091-5.026909 80.337454 0 27.927273 0 68.608-1.210181 120.552728h178.26909a41.704727 41.704727 0 0 0-7.540363-61.533091l-114.222546-1.210182 1.210182-86.667637a184.226909 184.226909 0 0 1 1.210182-38.912c4.747636-33.792 17.128727-52.968727 32.674909-85.364363a531.176727 531.176727 0 0 0 36.398546-94.208 445.905455 445.905455 0 0 0 13.777454-96.721455 354.490182 354.490182 0 0 0-2.513454-74.472727c-4.933818-31.744-7.354182-47.569455-20.107637-61.533091-22.807273-24.948364-59.671273-24.110545-74.472727-23.831273a127.255273 127.255273 0 0 0-57.716364 15.080728 113.198545 113.198545 0 0 0-55.202909 70.283636 33.233455 33.233455 0 0 0 1.582546 24.110545z" opacity=".2" /><path d="M153.693091 197.073455l1.210182 607.697454c9.774545 0 83.781818-2.234182 131.816727-64.046545 50.920727-65.163636 30.999273-141.218909 27.927273-153.227637a184.040727 184.040727 0 0 0-64.046546-94.208c13.777455-9.309091 68.049455-47.755636 81.640728-118.039272 3.165091-16.570182 12.008727-61.998545-13.777455-104.261819-23.645091-38.632727-62.836364-52.596364-87.877818-61.533091a218.670545 218.670545 0 0 0-76.893091-12.38109z" fill="#68C1C1" /><path d="M207.685818 264.843636l-1.210182 164.491637a85.457455 85.457455 0 0 0 53.992728-40.215273c20.573091-37.236364 0.558545-76.055273-2.513455-81.640727a95.045818 95.045818 0 0 0-50.269091-42.635637zM207.685818 534.807273v169.518545a114.408727 114.408727 0 0 0 47.755637-55.202909c4.468364-11.357091 18.618182-47.755636-1.210182-80.337454a81.268364 81.268364 0 0 0-46.545455-33.978182z" fill="#FFFFFF" /><path d="M524.101818 185.809455a266.146909 266.146909 0 0 0-96.628363 101.655272 297.890909 297.890909 0 0 0-22.621091 61.533091c-8.192 27.927273-14.894545 59.392-25.134546 175.755637 0 0-4.189091 47.848727-6.237091 130.327272A239.895273 239.895273 0 0 0 383.534545 735.418182a116.177455 116.177455 0 0 0 26.344728 49.245091 69.911273 69.911273 0 0 0 43.938909 25.134545c25.134545 1.954909 44.032-15.732364 51.479273-22.621091 25.693091-23.924364 31.185455-55.389091 37.236363-93.090909a359.517091 359.517091 0 0 0 3.723637-82.850909 271.266909 271.266909 0 0 0-14.801455-86.481454c-6.330182-17.035636-10.519273-27.927273-21.317818-37.236364-23.458909-20.852364-56.785455-16.663273-66.56-15.080727a377.576727 377.576727 0 0 1 9.029818-88.064 235.147636 235.147636 0 0 1 23.831273-71.586909c12.567273-22.341818 29.696-41.704727 64.046545-80.337455l11.264-12.567273a25.972364 25.972364 0 0 0-27.927273-33.885091z" fill="#68C1C1" /><path d="M452.608 536.110545a29.975273 29.975273 0 0 0-21.317818 17.594182 44.590545 44.590545 0 0 0-3.723637 21.317818c0 14.615273-1.396364 29.323636-1.210181 43.93891 0 41.704727-5.678545 46.545455 0 69.073454 4.747636 18.618182 11.450182 24.762182 16.290909 27.927273a27.927273 27.927273 0 0 0 23.831272 2.513454c2.420364-1.117091 10.426182-5.492364 16.29091-36.398545a302.266182 302.266182 0 0 0 3.723636-53.992727 356.631273 356.631273 0 0 0-1.210182-45.242182c-2.234182-22.248727-5.492364-30.254545-11.264-36.398546a27.927273 27.927273 0 0 0-21.410909-10.333091z" fill="#FFFFFF" /><path d="M706.187636 120.459636c-18.618182 0.558545-29.323636 21.038545-30.161454 22.621091-2.978909 6.144-2.699636 9.309091-5.026909 31.371637-1.954909 18.618182-2.978909 27.927273-3.723637 31.371636-4.002909 15.36-14.522182 20.48-48.965818 46.545455-44.125091 33.233455-52.596364 44.125091-55.202909 57.716363a33.233455 33.233455 0 0 0 5.026909 27.927273c9.309091 9.867636 26.717091 8.657455 37.236364 5.026909 16.756364-5.492364 18.618182-16.849455 45.242182-36.398545a208.151273 208.151273 0 0 1 18.618181-12.567273l-1.210181 499.712-69.818182 9.495273a26.903273 26.903273 0 0 0-10.053818 43.938909 34.164364 34.164364 0 0 0 22.621091 8.750545c20.666182 1.396364 89.367273 2.234182 182.085818 1.210182a35.933091 35.933091 0 0 0 20.107636-22.621091 32.209455 32.209455 0 0 0-11.264-33.885091 29.602909 29.602909 0 0 0-17.594182-3.723636 311.202909 311.202909 0 0 1-52.782545-5.026909l7.540363-641.675637a35.746909 35.746909 0 0 0-13.777454-23.831272 30.906182 30.906182 0 0 0-18.897455-5.957819zM781.498182 307.572364a27.182545 27.182545 0 0 0 26.344727 15.080727c6.516364-1.210182 9.309091-5.771636 20.107636-20.107636a225.093818 225.093818 0 0 1 27.927273-32.67491 62.836364 62.836364 0 0 1 38.632727-17.594181 47.848727 47.848727 0 0 1 35.188364 12.567272c3.630545 3.723636 9.309091 11.170909 11.264 43.938909a332.893091 332.893091 0 0 1-1.210182 59.019637 395.729455 395.729455 0 0 1-11.264 60.229818 461.637818 461.637818 0 0 1-23.831272 65.163636c-12.474182 29.323636-14.429091 28.672-25.134546 53.992728a405.038545 405.038545 0 0 0-25.134545 74.472727c-5.306182 24.948364-4.933818 41.053091-5.026909 80.337454 0 27.927273 0 68.608-1.210182 120.552728h178.269091a41.704727 41.704727 0 0 0-7.540364-61.533091l-114.222545-1.210182 1.210181-86.667636a184.226909 184.226909 0 0 1 1.210182-38.912c4.747636-33.792 17.128727-52.968727 32.674909-85.364364a531.176727 531.176727 0 0 0 36.398546-94.208 445.905455 445.905455 0 0 0 13.777454-96.721455 354.490182 354.490182 0 0 0-2.513454-74.472727c-4.933818-31.744-7.354182-47.569455-20.107637-61.533091-22.807273-24.948364-59.671273-24.110545-74.472727-23.831272a127.255273 127.255273 0 0 0-57.716364 15.080727 113.198545 113.198545 0 0 0-55.202909 70.283636 33.233455 33.233455 0 0 0 1.582546 24.110546zM533.504 127.627636l-55.947636-7.726545-38.074182 41.797818-9.960727-55.575273-51.479273-23.272727 49.803636-26.717091 6.237091-56.133818 40.773818 39.098182 55.296-11.450182-24.576 50.920727 27.927273 49.058909zM1099.682909 510.231273l-6.050909-37.515637-34.443636-16.290909 33.885091-17.314909 4.840727-37.701818 26.996363 26.810182 37.329455-7.074909-17.128727 33.978182 18.245818 33.326545-37.608727-5.864727-26.065455 27.648zM486.586182 926.440727h-33.698909l-19.176728 27.834182-10.426181-32.023273-32.395637-9.588363 27.275637-19.828364-0.837819-33.792 27.275637 19.828364 31.837091-11.264-10.426182 32.023272 20.573091 26.810182zM79.406545 469.550545l-30.161454-14.894545-29.416727 16.384 4.840727-33.233455L0 414.906182l33.140364-5.678546 14.149818-30.533818 15.639273 29.789091 33.419636 3.909818-23.458909 24.110546 6.516363 33.047272z" fill="#68C1C1" /><path d="M830.557091 455.866182l12.846545 4.933818 11.357091-7.726545-0.744727 13.684363 10.891636 8.471273-13.312 3.444364-4.654545 12.939636-7.447273-11.543273-13.777454-0.372363 8.750545-10.705455-3.909818-13.125818zM681.332364 988.066909l27.182545-38.446545-16.197818-44.125091 44.869818 13.963636 37.050182-29.137454 0.558545 47.104 39.191273 26.158545-44.590545 15.080727-12.846546 45.335273-28.113454-37.701818-47.104 1.768727z" fill="#68C1C1" /></svg>