<?xml version="1.0" standalone="no"?><!DOCTYPE svg PUBLIC "-//W3C//DTD SVG 1.1//EN" "http://www.w3.org/Graphics/SVG/1.1/DTD/svg11.dtd"><svg class="icon" width="200px" height="199.80px" viewBox="0 0 1025 1024" version="1.1" xmlns="http://www.w3.org/2000/svg"><path d="M1.137664 512c0-117.76-2.56-238.08 0-355.84C3.697664 94.72 36.977664 48.64 90.737664 17.92 124.017664 2.56 154.737664 0 185.457664 0H845.937664c61.44 0 110.08 23.04 145.92 71.68 20.48 23.04 33.28 51.2 33.28 81.92v714.24c0 61.44-35.84 104.96-89.6 135.68-33.28 17.92-64 17.92-97.28 17.92H164.977664c-66.56 0-112.64-33.28-145.92-94.72-15.36-25.6-17.92-53.76-17.92-81.92V512zM420.977664 104.96c-35.84 0-69.12 2.56-99.84 23.04-43.52 28.16-74.24 71.68-84.48 120.32-12.8 58.88-12.8 120.32 20.48 176.64 28.16 43.52 61.44 81.92 115.2 89.6 30.72 5.12 64 2.56 94.72 0 84.48-5.12 166.4-10.24 250.88-12.8 74.24-5.12 138.24-56.32 143.36-122.88 2.56-38.4 0-76.8-20.48-112.64-17.92-30.72-43.52-51.2-76.8-61.44-20.48-5.12-43.52-10.24-64-5.12-23.04 5.12-46.08 20.48-66.56 35.84-25.6 17.92-28.16 17.92-35.84-12.8 0-2.56-2.56-7.68-2.56-10.24-38.4-64-87.04-104.96-174.08-107.52z m279.04 422.4c-74.24 7.68-153.6 15.36-235.52 23.04-7.68 0-17.92 10.24-23.04 20.48-2.56 5.12 2.56 17.92 7.68 23.04 23.04 23.04 43.52 46.08 69.12 66.56 40.96 35.84 40.96 112.64 2.56 148.48-5.12 5.12-12.8 12.8-17.92 20.48-2.56 5.12 0 15.36 2.56 17.92 33.28 23.04 66.56 28.16 107.52 17.92 56.32-15.36 112.64-25.6 168.96-38.4 33.28-7.68 66.56-30.72 61.44-71.68-2.56-23.04-2.56-48.64-2.56-71.68 0-20.48-10.24-30.72-28.16-28.16-33.28 5.12-69.12 12.8-99.84 20.48-25.6 7.68-15.36 30.72-15.36 48.64 0 15.36 12.8 17.92 28.16 17.92 7.68 0 17.92 2.56 20.48 10.24 2.56 7.68-5.12 20.48-12.8 23.04-15.36 5.12-30.72 5.12-46.08 7.68-15.36 2.56-25.6-7.68-25.6-23.04v-81.92c0-20.48 12.8-35.84 33.28-40.96l122.88-23.04c15.36-2.56 23.04-10.24 23.04-25.6 2.56-33.28-10.24-53.76-46.08-58.88-28.16 2.56-58.88 2.56-94.72-2.56zM152.177664 714.24c0 28.16-2.56 56.32 2.56 84.48 5.12 33.28 17.92 64 56.32 76.8 25.6 7.68 51.2 23.04 76.8 28.16 30.72 7.68 61.44 12.8 94.72 12.8 10.24 0 23.04-7.68 28.16-15.36 33.28-40.96 64-79.36 94.72-120.32 17.92-20.48 12.8-61.44-5.12-81.92-25.6-25.6-53.76-53.76-81.92-79.36-10.24-10.24-20.48-20.48-33.28-23.04-48.64-10.24-97.28-17.92-148.48-25.6-56.32-10.24-74.24 12.8-84.48 71.68-5.12 23.04 0 48.64 0 71.68z" fill="#F39431" /><path d="M364.657664 312.32c2.56-53.76 20.48-87.04 61.44-110.08 30.72-17.92 81.92 0 104.96 33.28 23.04 33.28 28.16 69.12 23.04 107.52-5.12 38.4-28.16 69.12-66.56 81.92-33.28 12.8-69.12 7.68-94.72-23.04-20.48-28.16-28.16-56.32-28.16-89.6z m445.44 33.28c2.56 23.04-7.68 43.52-25.6 64-20.48 23.04-53.76 23.04-74.24 2.56-33.28-35.84-38.4-81.92-10.24-115.2 17.92-23.04 38.4-30.72 64-23.04 33.28 12.8 48.64 28.16 48.64 61.44-2.56 0-2.56 2.56-2.56 10.24z m-448 409.6v71.68c0 17.92-7.68 25.6-23.04 23.04-38.4-7.68-74.24-15.36-110.08-25.6-10.24-2.56-17.92-23.04-20.48-35.84-2.56-43.52-5.12-87.04-2.56-130.56 0-30.72 15.36-38.4 46.08-33.28 25.6 5.12 48.64 10.24 74.24 15.36 23.04 5.12 38.4 23.04 38.4 46.08-2.56 23.04-2.56 46.08-2.56 69.12z" fill="#F39331" /></svg>