<?xml version="1.0" standalone="no"?><!DOCTYPE svg PUBLIC "-//W3C//DTD SVG 1.1//EN" "http://www.w3.org/Graphics/SVG/1.1/DTD/svg11.dtd"><svg class="icon" width="200px" height="166.64px" viewBox="0 0 1229 1024" version="1.1" xmlns="http://www.w3.org/2000/svg"><path fill="#d4237a" d="M679.187 511.938c-11.8 0-23.774 11.927-23.774 23.771 0 12.011 11.974 23.771 23.774 23.771 18.058 0 29.777-11.76 29.777-23.771 0-11.844-11.719-23.771-29.777-23.771z"  /><path fill="#d4237a" d="M601.867 398.832c17.977 0 29.777-11.93 29.777-29.736 0-17.894-11.8-29.695-29.777-29.695-17.81 0-35.661 11.76-35.661 29.695 0 17.806 17.891 29.736 35.661 29.736z"  /><path fill="#d4237a" d="M946.852 32h-672c-79.201 0-144 64.799-144 144v672c0 79.201 64.799 144 144 144h672c79.198 0 144-64.799 144-144v-672c0-79.201-64.802-144-144-144zM512.698 642.895c-29.695 0-53.552-6.050-83.287-11.888l-83.159 41.666 23.774-71.528c-59.557-41.663-95.173-95.297-95.173-160.608 0-113.192 107.097-202.271 237.847-202.271 116.97 0 219.407 71.192 239.989 167.033-7.643-0.838-15.246-1.427-22.974-1.427-112.936 0-202.146 84.337-202.187 188.244 0 17.344 2.727 33.978 7.348 49.898-7.308 0.545-14.703 0.88-22.176 0.88zM863.482 726.266l17.891 59.47-65.224-35.783c-23.774 5.962-47.672 11.886-71.362 11.886-113.145 0-202.271-77.239-202.271-172.579 0-95.045 89.086-172.579 202.271-172.579 106.889 0 202.064 77.49 202.064 172.579 0 53.636-35.616 101.136-83.37 137.006z"  /><path fill="#d4237a" d="M810.018 511.938c-11.763 0-23.646 11.927-23.646 23.771 0 12.011 11.924 23.771 23.646 23.771 17.891 0 29.777-11.76 29.777-23.771 0-11.844-11.886-23.771-29.777-23.771z"  /><path fill="#d4237a" d="M435.419 339.401c-17.853 0-35.83 11.8-35.83 29.695 0 17.807 17.977 29.736 35.83 29.736 17.847 0 29.695-11.93 29.695-29.736-0.001-17.936-11.848-29.695-29.695-29.695z"  /></svg>