<?xml version="1.0" standalone="no"?><!DOCTYPE svg PUBLIC "-//W3C//DTD SVG 1.1//EN" "http://www.w3.org/Graphics/SVG/1.1/DTD/svg11.dtd"><svg class="icon" width="200px" height="200.00px" viewBox="0 0 1024 1024" version="1.1" xmlns="http://www.w3.org/2000/svg"><path d="M443.08252 4.912382A526.273715 526.273715 0 0 1 602.688602 7.60029a518.02462 518.02462 0 0 1 264.434468 135.044171 499.672701 499.672701 0 0 1 137.732078 231.716147A507.272991 507.272991 0 0 1 1002.167241 658.07386a481.969587 481.969587 0 0 1-46.343229 107.979724 218.925416 218.925416 0 0 1-21.595945 32.440261c2.687907-8.063722 5.468501-13.532223 8.156408-21.595945a74.149167 74.149167 0 0 0-5.097755-53.943519 89.164374 89.164374 0 0 0-45.879797-43.19189 77.763939 77.763939 0 0 0-64.880522 5.375815c-8.156408 2.687907-13.532223 10.844316-21.595945 16.22013a340.437364 340.437364 0 0 0 53.943519-151.264301A367.038378 367.038378 0 0 0 834.40475 372.136133a367.038378 367.038378 0 0 0-91.759594-126.887762 330.241854 330.241854 0 0 0-135.044171-72.944244 373.433744 373.433744 0 0 0-189.080377 0 499.765387 499.765387 0 0 0-102.60391 46.34323 387.614772 387.614772 0 0 0-89.164374 86.38378 76.651702 76.651702 0 0 0 5.468501-24.283852 81.93483 81.93483 0 0 0-24.283852-64.880522 105.384504 105.384504 0 0 0-51.348298-16.127444 74.149167 74.149167 0 0 0-56.724113 16.127444l-10.47357 10.47357a507.643736 507.643736 0 0 1 86.38378-99.916003A526.551774 526.551774 0 0 1 443.08252 4.912382zM51.574917 293.816075c8.063722-16.127444 16.127444-32.347574 24.283852-45.879797a63.768284 63.768284 0 0 1-5.375815 21.595945 88.700941 88.700941 0 0 0 21.595945 67.568429A70.16365 70.16365 0 0 0 135.270789 361.47719a85.086169 85.086169 0 0 0 62.099928-13.532223c2.687907-2.687907 8.063722-5.375815 10.844316-8.063722a195.568429 195.568429 0 0 0-24.376539 53.94352 333.671253 333.671253 0 0 0-10.751629 205.300507 363.05286 363.05286 0 0 0 59.41202 126.887762A350.354815 350.354815 0 0 0 361.703809 831.304852a320.602462 320.602462 0 0 0 172.860246 32.347574 329.778421 329.778421 0 0 0 148.298335-46.34323 340.900797 340.900797 0 0 0 105.291817-91.852281c0 5.468501-2.687907 10.844316-2.687907 16.220131a99.823316 99.823316 0 0 0 2.687907 48.660391 81.378711 81.378711 0 0 0 132.356264 26.971759c2.687907-2.687907 5.375815-2.687907 8.063722-5.375814a501.433744 501.433744 0 0 1-150.615496 140.883417A496.057929 496.057929 0 0 1 556.345373 1022.980449a664.005793 664.005793 0 0 1-145.7958-8.063722 544.162201 544.162201 0 0 1-267.215062-145.888487A522.102824 522.102824 0 0 1 2.914526 458.6126 579.475742 579.475742 0 0 1 51.574917 293.816075z" fill="#38CEFF" /><path d="M100.142621 215.496017a79.432295 79.432295 0 0 1 59.412021-18.537291 77.022448 77.022448 0 0 1 48.660391 24.376538 81.842143 81.842143 0 0 1 24.283852 64.880522 76.651702 76.651702 0 0 1-5.468501 24.283852 97.506155 97.506155 0 0 1-18.537292 27.064446c-2.780594 2.687907-8.156408 5.375815-10.844316 8.063722a72.295438 72.295438 0 0 1-62.099927 13.532223 69.88559 69.88559 0 0 1-43.19189-24.376539 85.086169 85.086169 0 0 1-21.595945-67.475742 63.768284 63.768284 0 0 1 5.375814-21.595945 47.826213 47.826213 0 0 1 13.532223-18.537292z m729.164374 472.700942a89.535119 89.535119 0 0 1 64.880521-5.375815 73.129616 73.129616 0 0 1 46.34323 43.19189 91.666908 91.666908 0 0 1 5.375814 54.036206c-2.687907 8.063722-5.375815 13.532223-8.156408 21.595945-2.687907 2.687907-5.375815 8.063722-8.063722 10.844315s-5.375815 2.687907-8.063722 5.375815a80.081101 80.081101 0 0 1-83.417813 18.537292 81.65677 81.65677 0 0 1-48.567705-46.34323 75.168718 75.168718 0 0 1-2.687907-48.660391 34.29399 34.29399 0 0 0 2.687907-16.22013l16.220131-24.283852c8.063722-2.687907 16.22013-10.844316 24.283852-13.532223z" fill="#0B99FF" /><path d="M364.762462 283.064446a75.539464 75.539464 0 0 1 78.320058-13.532223 101.955105 101.955105 0 0 1 32.440261 18.537292c67.475742 45.879797 132.356264 89.164374 199.832005 132.356263a226.525706 226.525706 0 0 0 32.440261 21.595945 74.149167 74.149167 0 0 1 35.128168 40.503983 74.983345 74.983345 0 0 1 0 54.036206 81.286025 81.286025 0 0 1-32.440261 40.503982c-16.22013 8.063722-29.752353 18.537292-43.19189 26.97176-67.568429 46.34323-137.732078 91.852281-205.300506 137.732078a84.715424 84.715424 0 0 1-56.724113 13.532223A74.149167 74.149167 0 0 1 354.010833 722.954381 72.944243 72.944243 0 0 1 343.166517 661.132513a86.939899 86.939899 0 0 1 32.440261-48.567705C426.58433 577.43664 478.210688 544.996379 529.558986 509.775525c-46.34323-32.347574-94.540188-62.099928-140.419985-94.447502-5.468501-5.468501-13.532223-8.156408-18.537292-13.532223a83.417813 83.417813 0 0 1-29.752353-54.036206 69.329471 69.329471 0 0 1 24.283852-64.880521z" fill="#FF4A4A" /></svg>