<?xml version="1.0" standalone="no"?><!DOCTYPE svg PUBLIC "-//W3C//DTD SVG 1.1//EN" "http://www.w3.org/Graphics/SVG/1.1/DTD/svg11.dtd"><svg class="icon" width="200px" height="200.00px" viewBox="0 0 1024 1024" version="1.1" xmlns="http://www.w3.org/2000/svg"><path fill="#d4237a" d="M121.01653333 685.7664h571.39306667V338.2272H121.01653333v347.5392m825.40693334-260.6496v-86.8896c0-47.78666667-39.1008-86.8832-86.8832-86.8832H121.01653333c-47.7856 0-86.8832 39.09653333-86.8832 86.8832v347.5392c0 47.78666667 39.0976 86.8896 86.8832 86.8896h738.52373334c47.7824 0 86.8832-39.10186667 86.8832-86.8896v-86.8832c23.89333333 0 43.4432-19.54773333 43.4432-43.4432v-86.88213333c0-23.89333333-19.5488-43.44106667-43.4432-43.44106667m-43.44106667 43.44213333v217.20746667c0 23.89226667-19.54773333 43.44106667-43.44213333 43.44106667H121.01653333c-23.89333333 0-43.44213333-19.5488-43.44213333-43.44106667V338.2272c0-23.89333333 19.5488-43.44106667 43.44213333-43.44106667h738.52373334c23.8944 0 43.44213333 19.54773333 43.44213333 43.44106667v130.33173333m0 0z" /></svg>