<?xml version="1.0" standalone="no"?><!DOCTYPE svg PUBLIC "-//W3C//DTD SVG 1.1//EN" "http://www.w3.org/Graphics/SVG/1.1/DTD/svg11.dtd"><svg class="icon" width="200px" height="200.00px" viewBox="0 0 1024 1024" version="1.1" xmlns="http://www.w3.org/2000/svg"><path fill="#d4237a" d="M78.866091 853.109994c-30.088049 0-54.482231-19.86489-54.482231-44.379486v-118.332681c0-24.505995 24.387301-44.374325 54.482231-44.374325 30.084609 0 54.482231 19.868331 54.482231 44.374325v118.332681c0.00172 24.514596-24.392461 44.379486-54.482231 44.379486zM727.495699 851.823283c-30.08977 0-54.483951-19.86489-54.483952-44.379486V334.099311c0-24.502554 24.394182-44.372605 54.483952-44.372605s54.485671 19.870051 54.485671 44.372605v473.342766c-0.00172 24.516316-24.395902 44.381206-54.485671 44.381206z m-217.918603 0c-30.09149 0-54.483951-19.86489-54.483951-44.379486V452.444034c0-24.509435 24.387301-44.379486 54.483951-44.379486 30.088049 0 54.47535 19.870051 54.47535 44.379486v354.999763c0.00172 24.514596-24.392461 44.379486-54.47535 44.379486z m-217.927204 0c-30.08977 0-54.483951-19.86489-54.483951-44.379486V570.776715c0-24.509435 24.387301-44.379486 54.483951-44.379486 30.09493 0 54.482231 19.870051 54.482231 44.379486V807.445517c0.00172 24.512875-24.392461 44.377766-54.482231 44.377766z m653.480576 0c-30.088049 0-54.483951-19.86489-54.483951-44.379486V215.279813c0-24.504274 24.395902-44.372605 54.483951-44.372605 30.08977 0 54.485671 19.868331 54.485672 44.372605V807.445517c-0.006881 24.512875-24.402783 44.377766-54.485672 44.377766z" /></svg>